<svg width="130" height="130" viewBox="0 0 130 130" fill="none" xmlns="http://www.w3.org/2000/svg">
<g clip-path="url(#clip0_304_197)">
<path fill-rule="evenodd" clip-rule="evenodd" d="M10.8316 117.29C14.2448 102.664 19.1745 96.2087 25.1475 94.0207C31.1206 91.828 37.8521 93.9046 44.5836 95.986C49.2292 97.4502 53.9697 98.944 58.331 99.213C62.8819 99.4961 67.1485 98.4536 70.8461 94.7824C71.6994 93.9011 72.458 92.4712 72.9321 90.5652C73.6905 87.9791 74.1646 84.4596 74.3542 80.33C75.3023 64.6645 73.4065 40.0076 75.6819 24.9913C76.156 21.5393 76.9139 18.612 77.9568 16.4584C78.9049 14.5843 80.0424 13.3179 81.5594 12.9957C82.7919 12.7327 84.2143 13.1011 86.0156 14.1009C89.0496 15.808 92.6521 19.2896 97.203 24.9367C101.185 29.8802 104.504 35.4491 108.391 40.5063C114.459 48.4232 120.811 56.4467 127.922 62.7986C128.396 63.2002 129.059 63.16 129.438 62.7098C129.912 62.2585 129.818 61.5666 129.344 61.1651C122.328 54.9031 116.071 46.9839 110.098 39.1784C106.305 34.1081 102.892 28.525 98.9103 23.5685C94.1698 17.6252 90.2826 13.9967 87.0591 12.1996C84.7837 10.8646 82.7919 10.5021 81.0853 10.8539C79.3788 11.2164 77.8622 12.3406 76.7245 14.1436C75.2075 16.5294 74.1642 20.1828 73.5006 24.6678C71.2251 39.7375 73.1219 64.4832 72.1738 80.2044C71.9842 84.1445 71.5097 87.5053 70.8461 89.9729C70.4668 91.4359 69.9926 92.5636 69.2341 93.2401C66.1054 96.4125 62.4084 97.2725 58.4264 97.0285C54.2547 96.7691 49.7038 95.306 45.153 93.8963C38.0422 91.6657 30.7415 89.6175 24.3893 91.9666C18.037 94.3192 12.3484 101.07 8.74563 116.795C8.55601 117.384 8.93506 117.973 9.50392 118.109C10.0728 118.245 10.7368 117.879 10.8316 117.29Z" fill="white"/>
<path fill-rule="evenodd" clip-rule="evenodd" d="M7.68015 116.438C7.58534 116.285 7.39535 115.87 7.30054 115.526C6.73168 113.856 6.16338 111.264 5.97376 110.503C3.88794 103.776 2.18137 96.2451 2.18137 89.039C2.18137 88.4348 1.70676 87.9456 1.1379 87.9468C0.474234 87.948 0 88.4384 0 89.0425C0 96.4571 1.80139 104.207 3.79239 111.13C4.07682 111.901 4.64568 114.532 5.21454 116.229C5.40416 116.839 5.59434 117.343 5.78395 117.661C5.97357 117.921 6.16282 118.1 6.35244 118.213C6.73168 118.504 7.3011 118.646 7.86996 118.627C8.53362 118.606 9.29192 118.387 10.0504 118.015C11.6622 117.288 13.5582 115.957 15.0751 114.905C15.9284 114.301 16.6871 113.786 17.1611 113.628C21.238 112.277 25.6936 113.717 29.1068 118.394C29.486 118.88 30.1503 118.985 30.6243 118.627C31.0984 118.27 31.193 117.584 30.9086 117.097C26.7369 111.488 21.4274 109.928 16.4973 111.55C15.2648 111.941 12.6104 114.1 10.2402 115.479C9.48172 115.873 8.8175 116.198 8.24864 116.357C8.05902 116.403 7.96421 116.435 7.77459 116.439C7.77459 116.442 7.68015 116.445 7.68015 116.438Z" fill="white"/>
</g>
<defs>
<clipPath id="clip0_304_197">
<rect width="130" height="130" fill="white"/>
</clipPath>
</defs>
</svg>
