<svg width="149" height="92" viewBox="0 0 149 92" fill="none" xmlns="http://www.w3.org/2000/svg">
<path fill-rule="evenodd" clip-rule="evenodd" d="M18.9391 0.221358C13.0591 2.86136 7.21908 5.42137 1.41908 8.23137C0.169083 8.83137 -0.350839 10.3212 0.249161 11.5612C0.849161 12.8112 2.349 13.3314 3.589 12.7314C9.359 9.94137 15.1489 7.40142 20.9889 4.78142C22.2489 4.21142 22.8092 2.73137 22.2492 1.48137C21.6792 0.221368 20.1991 -0.348642 18.9391 0.221358Z" fill="white"/>
<path fill-rule="evenodd" clip-rule="evenodd" d="M62.1384 31.4514C53.5984 49.9414 45.9982 68.8514 37.8582 87.5114C37.3082 88.7814 37.8882 90.2515 39.1482 90.8015C40.4182 91.3515 41.888 90.7814 42.448 89.5114C50.568 70.8814 58.148 52.0015 66.678 33.5515C67.258 32.2915 66.7083 30.8114 65.4583 30.2314C64.1983 29.6514 62.7184 30.2014 62.1384 31.4514Z" fill="white"/>
<path fill-rule="evenodd" clip-rule="evenodd" d="M135.409 36.2515C138.139 53.2515 141.349 70.2014 143.889 87.2314C144.099 88.5914 145.369 89.5313 146.729 89.3313C148.099 89.1313 149.039 87.8515 148.839 86.4915C146.289 69.4415 143.079 52.4714 140.339 35.4514C140.119 34.0914 138.839 33.1613 137.479 33.3813C136.109 33.6013 135.189 34.8815 135.409 36.2515Z" fill="white"/>
</svg>
