<svg width="80" height="80" viewBox="0 0 80 80" fill="none" xmlns="http://www.w3.org/2000/svg">
<path fill-rule="evenodd" clip-rule="evenodd" d="M35.6079 30.0564C28.1818 23.952 22.1645 16.6825 17.6428 8.21291C16.7384 6.52595 14.6341 5.88246 12.9298 6.78681C11.2428 7.69115 10.5992 9.79554 11.5036 11.4999C16.4775 20.7695 23.0515 28.7347 31.1907 35.4303C32.6689 36.6477 34.8775 36.439 36.0949 34.9607C37.3123 33.4651 37.0862 31.2738 35.6079 30.0564Z" fill="black"/>
<path fill-rule="evenodd" clip-rule="evenodd" d="M31.6476 6.28254C32.0302 13.3086 32.3781 20.3347 32.8129 27.3608C32.9347 29.2738 34.5868 30.7347 36.4999 30.613C38.4129 30.4912 39.8738 28.8391 39.752 26.926C39.3173 19.9173 38.9694 12.9087 38.5867 5.88257C38.4824 3.97474 36.8303 2.50517 34.9172 2.613C33.0042 2.72082 31.5259 4.36428 31.6476 6.28254Z" fill="black"/>
<path fill-rule="evenodd" clip-rule="evenodd" d="M57.4667 7.70873C53.0146 14.4218 47.9713 20.613 42.893 26.8739C41.6756 28.3695 41.9016 30.5609 43.3972 31.7609C44.8929 32.9783 47.0843 32.7522 48.2843 31.2565C53.5017 24.8391 58.6843 18.4565 63.2756 11.5521C64.3365 9.95214 63.8842 7.79569 62.2842 6.73483C60.7016 5.67396 58.5276 6.10873 57.4667 7.70873Z" fill="black"/>
<path fill-rule="evenodd" clip-rule="evenodd" d="M74.7131 32.6652C62.6435 33.2043 49.8261 33.2217 37.7565 32.4565C35.8435 32.3521 34.1913 33.7956 34.0696 35.7261C33.9478 37.6391 35.4087 39.2913 37.3218 39.413C49.6348 40.1782 62.7132 40.1608 75.0262 39.6217C76.9392 39.5347 78.4347 37.9 78.3478 35.987C78.2608 34.0739 76.6261 32.5782 74.7131 32.6652Z" fill="black"/>
<path fill-rule="evenodd" clip-rule="evenodd" d="M31.1812 34.8737C38.6247 43.9867 46.3291 52.9259 53.2335 62.4563C54.3639 64.0042 56.5379 64.3519 58.1031 63.2215C59.6509 62.091 59.9987 59.917 58.8682 58.3692C51.8769 48.7344 44.0857 39.691 36.5553 30.4736C35.3379 28.9953 33.1465 28.7693 31.6682 29.9867C30.1726 31.2041 29.9638 33.3954 31.1812 34.8737Z" fill="black"/>
<path fill-rule="evenodd" clip-rule="evenodd" d="M33.4355 37.5179C35.3833 47.0136 35.9225 56.0919 36.0616 65.7093C36.079 67.6223 37.6616 69.1527 39.5747 69.1353C41.5051 69.1005 43.0355 67.5353 43.0007 65.6048C42.8616 55.5353 42.2877 46.0571 40.2529 36.1092C39.8529 34.231 38.0269 33.0135 36.1312 33.4135C34.253 33.7961 33.0355 35.6397 33.4355 37.5179Z" fill="black"/>
<path fill-rule="evenodd" clip-rule="evenodd" d="M33.7495 36.7531C28.1147 48.0226 25.2103 60.5444 19.1756 71.5705C18.2538 73.2401 18.8798 75.3617 20.5667 76.2835C22.2537 77.2052 24.3582 76.5791 25.2799 74.9095C31.3495 63.8138 34.2885 51.2226 39.9755 39.8661C40.8277 38.1443 40.132 36.0574 38.4276 35.1878C36.7059 34.3356 34.619 35.0313 33.7495 36.7531Z" fill="black"/>
<path fill-rule="evenodd" clip-rule="evenodd" d="M36.8506 34.1956C25.6332 36.1782 14.4332 37.0825 3.14621 38.4217C1.23317 38.6477 -0.123351 40.3695 0.102736 42.2826C0.328823 44.1956 2.05072 45.5521 3.96377 45.3261C15.3725 43.9869 26.7116 43.0478 38.0681 41.0478C39.9463 40.6999 41.2159 38.8912 40.8855 37.013C40.5376 35.1173 38.7462 33.8478 36.8506 34.1956Z" fill="black"/>
<path fill-rule="evenodd" clip-rule="evenodd" d="M44.6564 28.9096C42.3433 28.8053 40.152 28.6487 37.8911 28.3182C35.9781 28.04 34.2215 29.3617 33.9433 31.2574C33.665 33.153 34.9866 34.927 36.8823 35.2052C39.3866 35.5705 41.8041 35.7444 44.3432 35.8487C46.2563 35.9357 47.891 34.4574 47.9605 32.5269C48.0475 30.6139 46.5694 28.9966 44.6564 28.9096Z" fill="black"/>
</svg>
