<svg width="70" height="70" viewBox="0 0 70 70" fill="none" xmlns="http://www.w3.org/2000/svg">
<path fill-rule="evenodd" clip-rule="evenodd" d="M27.7275 13.7946C27.54 12.6821 27.3988 11.5822 27.3075 10.4822C27.17 8.83223 27.255 7.16961 27.2063 5.51961C27.185 4.81961 27.1013 2.99464 27.135 2.73214C27.4413 0.444639 29.2875 0.0945963 29.8275 0.0320963C30.0887 -0.00540372 32.7712 -0.30527 33.35 2.66973C34.06 6.30723 34.2875 9.96968 34.0363 13.5572C34.6225 16.6072 35.625 19.6446 36.9488 22.3946C42.2163 33.3321 52.2537 34.3946 63.1287 34.2946C64.8012 34.2696 66.19 35.5821 66.2775 37.2446C66.365 38.9196 65.12 40.3696 63.455 40.5196C57.3763 41.1071 46.5912 45.9822 42.8625 51.0572C42.0825 52.1197 41.6287 54.6822 41.0287 57.1947C40.1912 60.6822 39.195 64.1322 38.0788 65.5822C37.9113 65.8072 35.875 68.1072 35.2675 68.4447C33.8075 69.2447 32.6388 68.7821 31.975 68.3571C31.3113 67.9321 30.56 67.0946 30.26 65.7071C29.9463 64.2571 30.2113 61.2821 30.1625 60.6446C29.985 58.3321 29.5225 53.7946 28.5788 49.8946C28.07 47.7946 27.5275 45.8571 26.63 44.8946C23.3075 41.3321 17.995 41.8572 13.5213 42.4447C13.0075 42.5072 12.4938 42.5822 11.9813 42.6447C10.16 43.1822 8.22622 43.5821 6.18247 43.8196C3.09622 44.1821 2.58876 41.3446 2.56126 41.1571C2.50376 40.7446 2.28999 38.6197 4.61624 37.7697C4.86999 37.6822 6.74251 37.2696 7.46376 37.1071C8.46876 36.8821 9.48498 36.7072 10.505 36.5447C21.0412 33.2697 26.7638 24.0696 27.7275 13.7946ZM31.3438 25.1572C35.3213 33.3822 41.3575 37.3572 48.5125 39.1572H48.5113C44.0438 41.4947 39.98 44.4197 37.8262 47.3572C37.0087 48.4697 36.2588 50.7072 35.5825 53.2197C35.2163 50.8822 34.7213 48.3946 34.0675 46.2696C33.3238 43.8446 32.3225 41.8322 31.205 40.6322C29.0475 38.3197 26.34 37.0322 23.4287 36.3947C26.9137 33.3072 29.5563 29.4572 31.3438 25.1572Z" fill="black"/>
</svg>
