<svg width="53" height="53" viewBox="0 0 53 53" fill="none" xmlns="http://www.w3.org/2000/svg">
<g clip-path="url(#clip0_309_443)">
<path fill-rule="evenodd" clip-rule="evenodd" d="M6.74892 23.4418C9.11353 22.5993 11.6019 21.4794 13.5207 19.8582C15.7997 17.9325 16.7266 15.4524 17.349 12.8419C18.1481 9.48791 18.4674 5.91512 19.4363 2.55574C19.7951 1.3082 20.4855 0.836625 20.7818 0.627343C21.5305 0.0987022 22.2874 -0.0426033 22.9995 0.0103967C23.8435 0.0715506 25.0027 0.390888 25.7651 1.80558C25.8738 2.00807 26.0151 2.31657 26.1102 2.73921C26.1795 3.04906 26.2244 4.01799 26.2978 4.41752C26.4812 5.40142 26.6348 6.38535 26.7789 7.37469C27.2586 10.6675 27.5345 13.4642 29.0497 16.4893C31.1059 20.5961 33.1661 23.1089 35.9601 24.2219C38.6618 25.2982 41.892 25.0957 46.0192 24.2518C46.412 24.1567 46.8006 24.0751 47.1852 24.0085C49.0049 23.6905 50.7444 24.8851 51.1018 26.6979C51.4592 28.5095 50.3027 30.2747 48.4994 30.6729C48.123 30.7558 47.7519 30.8346 47.385 30.9067C41.8078 32.2874 35.3513 37.215 31.5991 41.5298C30.4426 42.8602 28.7494 46.5797 27.0221 48.9525C25.7474 50.7028 24.315 51.8566 23.1123 52.2643C22.3065 52.5388 21.627 52.4967 21.0658 52.3581C20.2504 52.157 19.5736 51.7153 19.0545 51.0127C18.7718 50.6281 18.5095 50.113 18.3845 49.4553C18.3247 49.1386 18.3179 48.3342 18.3193 47.97C17.9673 46.7591 17.5365 45.5768 17.2226 44.3551C16.4738 41.4401 15.0047 39.5946 13.2598 37.1566C11.6277 34.8749 9.87464 33.4412 7.30482 32.2969C6.97051 32.2154 4.27294 31.5549 3.32029 31.1757C1.9287 30.6199 1.26549 29.689 1.02495 29.1875C0.6159 28.3368 0.573809 27.5935 0.655347 26.9738C0.776296 26.0592 1.18671 25.2765 1.91512 24.6445C2.3663 24.2518 3.04036 23.8699 3.94272 23.6837C4.63987 23.5383 6.48935 23.4541 6.74892 23.4418ZM22.5742 18.6908C22.6992 18.9694 22.8324 19.2494 22.9737 19.5321C25.9852 25.5469 29.3528 28.9049 33.446 30.5343L33.5833 30.5873C30.8449 32.6203 28.3661 34.8925 26.4717 37.071C25.6917 37.9679 24.6589 39.8311 23.5432 41.7418C22.5294 38.4463 20.8714 36.117 18.7868 33.202C17.194 30.9774 15.5252 29.3031 13.4745 27.9387C15.0659 27.122 16.5838 26.1652 17.9061 25.0482C20.1077 23.1877 21.5631 21.0323 22.5742 18.6908Z" fill="black"/>
</g>
<defs>
<clipPath id="clip0_309_443">
<rect width="53" height="53" fill="white"/>
</clipPath>
</defs>
</svg>
