<svg width="207" height="334" viewBox="0 0 207 334" fill="none" xmlns="http://www.w3.org/2000/svg">
<path d="M52.217 184.285C52.0852 185.513 50.432 185.766 49.9289 184.647C39.6266 161.739 16.063 95.2307 73.1211 57.3722C118.248 27.4345 111.779 10.6299 118.607 1.1442C119.613 -0.252172 121.973 -0.396624 123.147 0.855295C135.582 14.1449 215.437 68.9645 135.187 112.457C116.235 122.737 58.9974 122.737 52.217 184.285Z" fill="#00BC74"/>
<path d="M59.9558 210.48C54.565 198.177 49.0425 137.351 130.682 123.471C130.994 123.423 131.305 123.652 131.449 123.941C133.27 127.588 149.382 150.749 127.7 162.762C105.37 175.137 72.8696 188.74 62.0402 210.528C61.5969 211.383 60.3391 211.358 59.9558 210.48Z" fill="#00BC74"/>
<path d="M76.2113 236.686C58.8171 221.037 62.0276 210.287 89.8918 191.593C92.4434 189.871 94.2284 191.4 92.1679 193.687C79.3739 207.831 78.2598 223.745 78.4395 235.59C78.4514 237.131 77.3613 237.721 76.2113 236.686Z" fill="#00BC74"/>
<path d="M32.7224 281.862L13.6996 281.846L13.6836 298.906L29.6372 298.922V308.576L13.6836 308.56L13.6676 333.618L0 333.602L0.0479595 271.582L32.7224 271.614V281.862Z" fill="#00BC74"/>
<path d="M51.7936 323.419L71.2799 323.435V333.667L38.126 333.635L38.1739 271.615L70.5606 271.647V281.879L51.8256 281.863L51.8096 296.979L67.7631 296.995V307.227L51.8096 307.211L51.7936 323.419Z" fill="#00BC74"/>
<path d="M90.7977 310.487L90.7817 333.699L77.21 333.683L77.2579 271.663L102.291 271.679C110.316 271.679 114.328 275.261 114.328 282.409L114.312 299.773C114.312 305.492 111.755 308.945 106.655 310.102L117.334 333.715L102.707 333.699L93.1635 310.487H90.7977ZM90.8136 281.911L90.7977 300.641H98.151C99.0462 300.641 99.6856 300.464 100.069 300.111C100.453 299.757 100.645 299.147 100.645 298.311L100.661 284.369C100.661 282.746 99.8295 281.927 98.183 281.927L90.8136 281.911Z" fill="#00BC74"/>
<path d="M133.815 271.711L146.619 271.727C154.644 271.727 158.656 275.309 158.656 282.457L158.624 322.92C158.624 330.132 154.596 333.747 146.571 333.73L133.767 333.714C125.678 333.714 121.634 330.1 121.634 322.888L121.666 282.425C121.682 275.277 125.726 271.694 133.815 271.711ZM144.957 321.057L144.989 284.384C144.989 282.762 144.157 281.943 142.511 281.943H137.923C136.197 281.943 135.349 282.762 135.333 284.384L135.301 321.057C135.301 322.679 136.165 323.498 137.875 323.498H142.463C144.125 323.498 144.957 322.679 144.957 321.057Z" fill="#00BC74"/>
<path d="M192.082 302.183L206.773 333.795L191.49 333.779L184.441 314.07L177.263 333.763L162.732 333.747L176.8 302.167L163.26 271.727L178.638 271.743L184.457 289.991L190.307 271.759L205.03 271.775L192.082 302.183Z" fill="#00BC74"/>
</svg>
